<?xml version="1.0" encoding="utf-8"?>
<!-- Generator: Adobe Illustrator 27.5.0, SVG Export Plug-In . SVG Version: 6.00 Build 0)  -->
<svg version="1.1" id="Calque_1" xmlns="http://www.w3.org/2000/svg" xmlns:xlink="http://www.w3.org/1999/xlink" x="0px" y="0px"
	 viewBox="0 0 1920 1080" style="enable-background:new 0 0 1920 1080;" xml:space="preserve">
<style type="text/css">
	.st0{fill:#FFFFFF;}
</style>
<g>
	<g>
		<path class="st0" d="M1094,566c0,8,0,16,0,24c-89.3,0-178.7,0-268,0c0-8,0-16,0-24c1.3,0,2.6,0,4,0c0-25.5,0-50.7,0-76
			c0.7,0,1.3,0,2,0c0,25.3,0,50.6,0,75.9c0.7,0,1.3,0,2,0c0-25.4,0-50.6,0-75.9c1.3,0,2.7,0,4,0c0,25.3,0,50.6,0,75.9
			c0.7,0,1.3,0,2,0c0-25.4,0-50.6,0-75.9c2.7,0,5.3,0,8,0c0,25.3,0,50.6,0,75.9c1.4,0,2.7,0,4,0c0-25.4,0-50.6,0-75.9
			c0.7,0,1.3,0,2,0c0,25.3,0,50.6,0,75.9c2.1,0,4,0,6,0c0-25.4,0-50.6,0-75.9c0.7,0,1.3,0,2,0c0,25.3,0,50.6,0,75.9c0.7,0,1.3,0,2,0
			c0-25.4,0-50.6,0-75.9c2,0,4,0,6,0c0,25.3,0,50.6,0,75.9c0.7,0,1.3,0,2,0c0-25.4,0-50.6,0-75.9c2,0,4,0,6,0c0,25.3,0,50.6,0,75.9
			c0.7,0,1.3,0,2,0c0-25.4,0-50.6,0-75.9c2,0,4,0,6,0c0,25.3,0,50.6,0,75.9c1.4,0,2.7,0,4,0c0-25.4,0-50.6,0-75.9c0.7,0,1.3,0,2,0
			c0,25.3,0,50.6,0,75.9c0.7,0,1.3,0,2,0c0-25.4,0-50.6,0-75.9c0.7,0,1.3,0,2,0c0,25.3,0,50.6,0,75.9c0.8,0,1.3,0,2,0
			c0-25.4,0-50.6,0-75.9c2,0,4,0,6,0c0,25.3,0,50.6,0,75.9c1.4,0,2.7,0,4,0c0-25.4,0-50.6,0-75.9c2,0,4,0,6,0c0,25.3,0,50.6,0,75.9
			c0.7,0,1.3,0,2,0c0-25.4,0-50.6,0-75.9c0.7,0,1.3,0,2,0c0,25.3,0,50.6,0,75.9c2.1,0,4,0,6,0c0-25.4,0-50.6,0-75.9c2,0,4,0,6,0
			c0,25.3,0,50.6,0,75.9c1.4,0,2.7,0,4,0c0-25.4,0-50.6,0-75.9c0.7,0,1.3,0,2,0c0,25.3,0,50.6,0,75.9c0.7,0,1.3,0,2,0
			c0-25.4,0-50.6,0-75.9c0.7,0,1.3,0,2,0c0,25.3,0,50.6,0,75.9c2.1,0,4,0,6,0c0-25.4,0-50.6,0-75.9c2,0,4,0,6,0
			c0,25.3,0,50.6,0,75.9c1.4,0,2.7,0,4,0c0-25.4,0-50.6,0-75.9c0.7,0,1.3,0,2,0c0,25.3,0,50.6,0,75.9c0.7,0,1.3,0,2,0
			c0-25.4,0-50.6,0-75.9c2,0,4,0,6,0c0,25.3,0,50.6,0,75.9c1.4,0,2.7,0,4,0c0-25.4,0-50.6,0-75.9c0.7,0,1.3,0,2,0
			c0,25.3,0,50.6,0,75.9c0.7,0,1.3,0,2,0c0-25.4,0-50.6,0-75.9c2,0,4,0,6,0c0,25.3,0,50.6,0,75.9c1.4,0,2.7,0,4,0
			c0-25.4,0-50.6,0-75.9c0.7,0,1.3,0,2,0c0,25.3,0,50.6,0,75.9c1.4,0,2.7,0,4,0c0-25.4,0-50.6,0-75.9c1.3,0,2.7,0,4,0
			c0,25.3,0,50.6,0,75.9c1.4,0,2.7,0,4,0c0-25.4,0-50.6,0-75.9c1.3,0,2.7,0,4,0c0,25.3,0,50.6,0,75.9c0.7,0,1.3,0,2,0
			c0-25.4,0-50.6,0-75.9c0.7,0,1.3,0,2,0c0,25.3,0,50.6,0,75.9c2.1,0,4,0,6,0c0-25.4,0-50.6,0-75.9c0.7,0,1.3,0,2,0
			c0,25.3,0,50.6,0,75.9c1.4,0,2.7,0,4,0c0-25.4,0-50.6,0-75.9c2,0,4,0,6,0c0,25.3,0,50.6,0,75.9c0.7,0,1.3,0,2,0
			c0-25.4,0-50.6,0-75.9c2,0,4,0,6,0c0,25.3,0,50.6,0,75.9c1.4,0,2.7,0,4,0c0-25.4,0-50.6,0-75.9c0.7,0,1.3,0,2,0
			c0,25.3,0,50.6,0,75.9c0.7,0,1.3,0,2,0c0-25.4,0-50.6,0-75.9c2,0,4,0,6,0c0,25.3,0,50.6,0,75.9c0.7,0,1.3,0,2,0
			c0-25.4,0-50.6,0-75.9c2,0,4,0,6,0c0,25.3,0,50.6,0,75.9c0.7,0,1.3,0,2,0c0-25.4,0-50.6,0-75.9c1.3,0,2.7,0,4,0
			c0,25.3,0,50.6,0,75.9c1.4,0,2.7,0,4,0c0-25.4,0-50.6,0-75.9c1.3,0,2.7,0,4,0c0,25.3,0,50.6,0,75.9c1.4,0,2.7,0,4,0
			c0-25.4,0-50.6,0-75.9c2,0,4,0,6,0c0,25.3,0,50.6,0,75.9c2.1,0,4,0,6,0c0-25.4,0-50.6,0-75.9c0.7,0,1.3,0,2,0
			c0,25.3,0,50.6,0,75.9c0.7,0,1.3,0,2,0c0-25.4,0-50.6,0-75.9c0.7,0,1.3,0,2,0c0,25.3,0,50.6,0,76C1091.4,566,1092.7,566,1094,566z
			 M1006.9,585c0-5,0-10,0-15c-0.6,0-1.2-0.1-1.7,0c-0.4,0.1-1,0.4-1.1,0.7c-0.9,2.4-1.7,4.9-2.5,7.3c-0.5,1.5-1,3.1-1.6,4.9
			c-0.3-0.8-0.5-1.2-0.7-1.6c-1.1-3.1-2.1-6.2-3.2-9.3c-0.7-2.1-1-2.3-3.4-1.8c0,1.4,0,2.9,0,4.3c0,3,0.1,6,0,9c0,1.7,0,1.8,1.7,1.3
			c0-4,0-8,0-12c0.5,0.5,0.7,1,0.9,1.5c1.1,3.2,2.1,6.5,3.2,9.7c0.1,0.4,0.6,0.9,0.9,0.9c0.5,0,0.9-0.4,1.4-0.7
			c0.1-0.1,0.1-0.3,0.2-0.5c1.1-3.1,2.2-6.3,3.3-9.4c0.1-0.4,0.3-0.7,0.5-1c0.1,0,0.2,0,0.3,0.1c0,3.8,0,7.7,0,11.6
			C1005.7,585,1006.3,585,1006.9,585z M974.4,578c2.4,0,4.7,0,7,0c1.7,0,1.8-0.1,1.5-2c-0.4,0-0.9,0-1.3,0c-2.1,0-4.2,0-6.2,0
			c-0.3,0-0.9-0.2-0.9-0.4c-0.1-1.2,0-2.4,0-3.6c2.6,0,5.1,0,7.5,0c0.8,0,1.6-0.1,1.6-1s-0.9-1-1.6-1c-1.4,0-2.8,0-4.2,0
			c-1.6,0-3.2,0-4.9,0c0,0.8,0,1.4,0,2c0,4,0,8,0,12c0,0.5,0,1,0.7,1c3.1,0,6.2,0,9.2-0.1c0.4,0,0.8-0.6,1.1-0.9
			c-0.3-0.3-0.6-0.8-1-0.9c-1.5-0.1-3.1-0.2-4.6-0.2c-1.3,0-2.6,0-3.9,0C974.4,581.3,974.4,579.7,974.4,578z M1012.4,578
			c2.3,0,4.7,0,7,0c1.7,0,1.8-0.1,1.5-2c-0.4,0-0.9,0-1.3,0c-2.1,0-4.2,0-6.2,0c-0.3,0-0.9-0.2-0.9-0.4c-0.1-1.2,0-2.4,0-3.6
			c1.3,0,2.4,0,3.6,0c1.5,0,2.9,0.1,4.4,0c0.4,0,0.8-0.6,1.2-0.9c-0.4-0.3-0.7-0.7-1.1-1c-0.2-0.1-0.5-0.1-0.7-0.1
			c-2.7,0-5.4,0-8.1,0c-0.3,0-0.5,0.1-0.8,0.2c0,0.6,0,1.2,0,1.7c0,4,0,8.1,0,12.1c0,0.3,0.4,1,0.7,1c3.1,0.1,6.2,0.1,9.2,0
			c0.4,0,0.8-0.6,1.2-0.9c-0.4-0.3-0.7-0.9-1.1-0.9c-1.5-0.1-3-0.1-4.5-0.2c-1.3,0-2.6,0-4,0C1012.4,581.3,1012.4,579.7,1012.4,578z
			 M959.3,573.2c0.3,0.2,0.6,0.4,0.8,0.6c0.7,0.9,1.3,1.8,2,2.7c1.7,2.6,3.4,5.2,5.1,7.8c0.3,0.4,1.1,0.5,1.7,0.6
			c0.1,0,0.4-0.8,0.5-1.2c0.1-0.5,0.1-1,0.1-1.5c0-3.6-0.1-7.2-0.1-10.8c0-1.4-0.1-1.5-1.7-1.2c0,3.8,0,7.7,0,11.6
			c-0.1,0-0.2,0.1-0.3,0.1c-0.6-0.9-1.3-1.8-1.9-2.7c-1.8-2.9-3.6-5.8-5.6-8.6c-0.3-0.4-1.2-0.5-1.8-0.7c-0.1,0.4-0.4,0.9-0.4,1.3
			c0,4.1,0,8.2,0,12.2c0,1.6,0,1.6,1.6,1.3C959.3,581,959.3,577.1,959.3,573.2z M952.7,581.8c-0.1,0.1-0.3,0.1-0.4,0.2
			c-1-1.6-2-3.3-3.1-4.9c-1.4-2.1-2.7-4.3-4.2-6.3c-0.3-0.4-1.1-0.5-1.7-0.6c-0.1,0-0.5,0.8-0.5,1.3c-0.1,3-0.1,5.9-0.1,8.9
			c0,1.6,0,3.1,0,4.8c0.7,0,1.2-0.1,1.6-0.1c0-4,0-7.8,0-11.6c1.1,0.9,1.9,2,2.7,3.1c1.7,2.6,3.4,5.3,5.2,7.9c0.3,0.4,1,0.5,1.6,0.6
			c0.2,0,0.5-0.7,0.6-1.1c0.1-0.5,0.1-1,0.1-1.5c0-3.7-0.1-7.3-0.1-11c0-1.4-0.2-1.5-1.7-1.1C952.7,574.1,952.7,577.9,952.7,581.8z
			 M898.8,580.1c0.6,1.2,0.8,2.3,1.5,3.1c2,2.1,6.4,2.7,8.9,0.5c1.1-1,1.6-2.2,1.4-3.7c-0.2-1.6-1.2-2.5-2.5-3
			c-1.5-0.5-3.2-0.6-4.7-1.2c-0.8-0.3-1.6-1.1-2.1-1.9c-0.1-0.2,0.6-1.2,1.2-1.7c1.3-1,4.7-0.5,5.8,0.6c0.5,0.5,1,1.3,2,0.8
			c0.2-1.3-0.5-2.1-1.5-2.8c-1.6-1.2-3.4-1.1-5.3-1c-1.6,0.1-3.6,1.9-3.7,3.2c-0.2,2.6,1.4,4.7,4.1,4.7c1.6,0,2.9,0.6,4.2,1.3
			c1.2,0.6,1.4,1.6,0.6,2.6c-1,1.3-4.4,1.8-6,0.7c-0.6-0.4-1.4-0.9-1.6-1.5C900.8,580,900.1,579.9,898.8,580.1z M940.7,584.9
			c0-0.2,0-0.3-0.1-0.5c-1.3-3-2.5-6-3.8-9.1c-0.5-1.3-1-2.6-1.6-3.9c-0.3-0.6-0.9-1.3-1.4-1.3c-0.4,0-1,0.8-1.4,1.2
			c-0.1,0.1-0.1,0.2-0.1,0.3c-1.8,4.1-3.5,8.2-5.3,12.3c-0.3,0.6-0.1,0.9,0.6,0.9c1.1,0,1.6-0.8,1.7-1.5c0.6-3.2,2.6-3.8,5.6-3.6
			c1.5,0.1,2.4,0.3,2.7,1.9c0.1,0.6,0.6,1.1,0.7,1.7C938.6,584.9,939.4,585.3,940.7,584.9z M925.9,580.1c-1.1-0.4-1.7,0.2-2.2,1
			c-1.4,2.3-3.7,2.4-5.8,1.6c-3.7-1.4-3.6-6.2-2.2-8.6c1.8-3,5.8-3,7.9-0.3c0.1,0.1,0.1,0.3,0.3,0.4c0.4,0.3,0.8,0.5,1.2,0.7
			c0.1-0.5,0.2-1,0.2-1.5c0-0.3-0.2-0.7-0.4-1c-1.3-2-5.1-3.2-7.2-2.2c-5,2.3-5.6,7.4-3.4,11.5c1.3,2.5,3.6,3.3,6.4,3.2
			C923,584.9,925.6,582.7,925.9,580.1z"/>
		<path d="M1084,490c0,25.3,0,50.5,0,75.9c-2,0-3.9,0-6,0c0-25.3,0-50.6,0-75.9C1080,490,1082,490,1084,490z"/>
		<path d="M924,490c0,25.3,0,50.5,0,75.9c-2,0-3.9,0-6,0c0-25.3,0-50.6,0-75.9C920,490,922,490,924,490z"/>
		<path d="M1012,490c0,25.3,0,50.5,0,75.9c-2,0-3.9,0-6,0c0-25.3,0-50.6,0-75.9C1008,490,1010,490,1012,490z"/>
		<path d="M946,490c0,25.3,0,50.5,0,75.9c-2,0-3.9,0-6,0c0-25.3,0-50.6,0-75.9C942,490,944,490,946,490z"/>
		<path d="M860,490c0,25.3,0,50.5,0,75.9c-2,0-3.9,0-6,0c0-25.3,0-50.6,0-75.9C856,490,858,490,860,490z"/>
		<path d="M998,490c0,25.3,0,50.5,0,75.9c-1.3,0-2.6,0-4,0c0-25.3,0-50.6,0-75.9C995.3,490,996.7,490,998,490z"/>
		<path d="M984,490c0,25.3,0,50.5,0,75.9c-1.3,0-2.6,0-4,0c0-25.3,0-50.6,0-75.9C981.3,490,982.7,490,984,490z"/>
		<path d="M890,490c0,25.3,0,50.5,0,75.9c-1.3,0-2.6,0-4,0c0-25.3,0-50.6,0-75.9C887.3,490,888.7,490,890,490z"/>
		<path d="M830,490c0,25.3,0,50.5,0,76c-1.4,0-2.7,0-4,0c0-25.3,0-50.7,0-76C827.3,490,828.7,490,830,490z"/>
		<path d="M908,490c0,25.3,0,50.5,0,75.9c-1.3,0-2.6,0-4,0c0-25.3,0-50.6,0-75.9C905.3,490,906.7,490,908,490z"/>
		<path d="M1072,490c0,25.3,0,50.5,0,75.9c-1.3,0-2.6,0-4,0c0-25.3,0-50.6,0-75.9C1069.3,490,1070.7,490,1072,490z"/>
		<path d="M1064,490c0,25.3,0,50.5,0,75.9c-1.3,0-2.6,0-4,0c0-25.3,0-50.6,0-75.9C1061.3,490,1062.7,490,1064,490z"/>
		<path d="M934,490c0,25.3,0,50.5,0,75.9c-1.3,0-2.6,0-4,0c0-25.3,0-50.6,0-75.9C931.3,490,932.7,490,934,490z"/>
		<path d="M1036,490c0,25.3,0,50.5,0,75.9c-1.3,0-2.6,0-4,0c0-25.3,0-50.6,0-75.9C1033.3,490,1034.7,490,1036,490z"/>
		<path d="M956,490c0,25.3,0,50.5,0,75.9c-1.3,0-2.6,0-4,0c0-25.3,0-50.6,0-75.9C953.3,490,954.7,490,956,490z"/>
		<path d="M852,490c0,25.3,0,50.5,0,75.9c-1.3,0-2.6,0-4,0c0-25.3,0-50.6,0-75.9C849.3,490,850.7,490,852,490z"/>
		<path d="M970,490c0,25.3,0,50.5,0,75.9c-1.3,0-2.6,0-4,0c0-25.3,0-50.6,0-75.9C967.3,490,968.7,490,970,490z"/>
		<path d="M1094,566c-1.3,0-2.6,0-4,0c0-25.4,0-50.7,0-76c1.3,0,2.7,0,4,0C1094,515.3,1094,540.7,1094,566z"/>
		<path d="M1018,490c0,25.3,0,50.5,0,75.9c-1.3,0-2.6,0-4,0c0-25.3,0-50.6,0-75.9C1015.3,490,1016.7,490,1018,490z"/>
		<path d="M990,490c0,25.3,0,50.5,0,75.9c-1.3,0-2.6,0-4,0c0-25.3,0-50.6,0-75.9C987.3,490,988.7,490,990,490z"/>
		<path d="M880,490c0,25.3,0,50.5,0,75.9c-0.7,0-1.3,0-2,0c0-25.3,0-50.6,0-75.9C878.7,490,879.3,490,880,490z"/>
		<path d="M1048,490c0,25.3,0,50.5,0,75.9c-0.7,0-1.3,0-2,0c0-25.3,0-50.6,0-75.9C1046.7,490,1047.3,490,1048,490z"/>
		<path d="M1004,490c0,25.3,0,50.5,0,75.9c-0.7,0-1.3,0-2,0c0-25.3,0-50.6,0-75.9C1002.7,490,1003.3,490,1004,490z"/>
		<path d="M840,490c0,25.3,0,50.5,0,75.9c-0.7,0-1.3,0-2,0c0-25.3,0-50.6,0-75.9C838.7,490,839.3,490,840,490z"/>
		<path d="M916,490c0,25.3,0,50.5,0,75.9c-0.7,0-1.3,0-2,0c0-25.3,0-50.6,0-75.9C914.7,490,915.3,490,916,490z"/>
		<path d="M1026,490c0,25.3,0,50.5,0,75.9c-0.7,0-1.3,0-2,0c0-25.3,0-50.6,0-75.9C1024.7,490,1025.3,490,1026,490z"/>
		<path d="M872,490c0,25.3,0,50.5,0,75.9c-0.7,0-1.3,0-2,0c0-25.3,0-50.6,0-75.9C870.7,490,871.3,490,872,490z"/>
		<path d="M1056,490c0,25.3,0,50.5,0,75.9c-0.7,0-1.3,0-2,0c0-25.3,0-50.6,0-75.9C1054.7,490,1055.3,490,1056,490z"/>
		<path d="M898,490c0,25.3,0,50.5,0,75.9c-0.7,0-1.2,0-2,0c0-25.3,0-50.6,0-75.9C896.7,490,897.3,490,898,490z"/>
		<path d="M974,490c0,25.3,0,50.6,0,75.9c-0.7,0-1.3,0-2,0c0-25.3,0-50.6,0-75.9C972.7,490,973.3,490,974,490z"/>
		<path d="M1040,490c0,25.3,0,50.5,0,75.9c-0.7,0-1.3,0-2,0c0-25.3,0-50.6,0-75.9C1038.7,490,1039.3,490,1040,490z"/>
		<path d="M938,490c0,25.3,0,50.6,0,75.9c-0.7,0-1.3,0-2,0c0-25.3,0-50.6,0-75.9C936.7,490,937.3,490,938,490z"/>
		<path d="M864,490c0,25.3,0,50.6,0,75.9c-0.7,0-1.3,0-2,0c0-25.3,0-50.6,0-75.9C862.7,490,863.3,490,864,490z"/>
		<path d="M834,490c0,25.3,0,50.5,0,75.9c-0.7,0-1.3,0-2,0c0-25.3,0-50.6,0-75.9C832.7,490,833.3,490,834,490z"/>
		<path d="M1088,490c0,25.3,0,50.6,0,75.9c-0.7,0-1.3,0-2,0c0-25.3,0-50.6,0-75.9C1086.7,490,1087.3,490,1088,490z"/>
		<path d="M960,490c0,25.3,0,50.5,0,75.9c-0.7,0-1.3,0-2,0c0-25.3,0-50.6,0-75.9C958.7,490,959.3,490,960,490z"/>
		<path d="M894,490c0,25.3,0,50.6,0,75.9c-0.7,0-1.3,0-2,0c0-25.3,0-50.6,0-75.9C892.7,490,893.3,490,894,490z"/>
		<path d="M1006.9,585c-0.6,0-1.2,0-1.8,0c0-3.9,0-7.7,0-11.6c-0.1,0-0.2,0-0.3-0.1c-0.2,0.3-0.3,0.7-0.5,1
			c-1.1,3.1-2.2,6.3-3.3,9.4c-0.1,0.2-0.1,0.4-0.2,0.5c-0.4,0.3-0.9,0.7-1.4,0.7c-0.3,0-0.8-0.5-0.9-0.9c-1.1-3.2-2.1-6.5-3.2-9.7
			c-0.2-0.5-0.5-1.1-0.9-1.5c0,4,0,8,0,12c-1.7,0.4-1.8,0.4-1.7-1.3c0-3,0-6,0-9c0-1.4,0-2.9,0-4.3c2.5-0.4,2.7-0.3,3.4,1.8
			c1,3.1,2.1,6.2,3.2,9.3c0.2,0.5,0.4,0.9,0.7,1.6c0.6-1.9,1.1-3.4,1.6-4.9c0.8-2.4,1.6-4.9,2.5-7.3c0.1-0.3,0.7-0.6,1.1-0.7
			c0.5-0.1,1.1,0,1.7,0C1006.9,575,1006.9,579.9,1006.9,585z"/>
		<path d="M974.4,578c0,1.7,0,3.3,0,5c1.3,0,2.6,0,3.9,0c1.5,0,3.1,0,4.6,0.2c0.4,0,0.7,0.6,1,0.9c-0.4,0.3-0.8,0.9-1.1,0.9
			c-3.1,0.1-6.2,0-9.2,0.1c-0.8,0-0.7-0.5-0.7-1c0-4,0-8,0-12c0-0.6,0-1.2,0-2c1.7,0,3.3,0,4.9,0c1.4,0,2.8,0,4.2,0
			c0.7,0,1.6,0.1,1.6,1s-0.8,1-1.6,1c-2.5,0-4.9,0-7.5,0c0,1.2,0,2.4,0,3.6c0,0.2,0.6,0.4,0.9,0.4c2.1,0,4.2,0,6.2,0
			c0.5,0,0.9,0,1.3,0c0.3,1.9,0.2,2-1.5,2C979,578,976.7,578,974.4,578z"/>
		<path d="M1012.4,578c0,1.7,0,3.3,0,5c1.3,0,2.6,0,4,0c1.5,0,3,0,4.5,0.2c0.4,0,0.7,0.6,1.1,0.9c-0.4,0.3-0.8,0.9-1.2,0.9
			c-3.1,0.1-6.2,0.1-9.2,0c-0.2,0-0.7-0.6-0.7-1c0-4,0-8.1,0-12.1c0-0.5,0-1.1,0-1.7c0.3-0.1,0.5-0.2,0.8-0.2c2.7,0,5.4,0,8.1,0
			c0.2,0,0.6-0.1,0.7,0.1c0.4,0.3,0.7,0.7,1.1,1c-0.4,0.3-0.8,0.9-1.2,0.9c-1.4,0.1-2.9,0-4.4,0c-1.2,0-2.3,0-3.6,0
			c0,1.3,0,2.4,0,3.6c0,0.2,0.6,0.4,0.9,0.4c2.1,0,4.2,0,6.2,0c0.4,0,0.9,0,1.3,0c0.3,1.9,0.2,2-1.5,2
			C1017,578,1014.7,578,1012.4,578z"/>
		<path d="M959.3,573.2c0,4,0,7.8,0,11.7c-1.5,0.4-1.6,0.3-1.6-1.3c0-4.1,0-8.2,0-12.2c0-0.4,0.2-0.9,0.4-1.3
			c0.6,0.2,1.5,0.2,1.8,0.7c1.9,2.8,3.7,5.7,5.6,8.6c0.6,0.9,1.2,1.8,1.9,2.7c0.1,0,0.2-0.1,0.3-0.1c0-3.9,0-7.8,0-11.6
			c1.6-0.4,1.7-0.3,1.7,1.2c0,3.6,0,7.2,0.1,10.8c0,0.5,0,1-0.1,1.5c-0.1,0.4-0.4,1.2-0.5,1.2c-0.6-0.1-1.4-0.2-1.7-0.6
			c-1.8-2.6-3.4-5.2-5.1-7.8c-0.6-0.9-1.3-1.8-2-2.7C959.9,573.5,959.6,573.4,959.3,573.2z"/>
		<path d="M952.7,581.8c0-3.9,0-7.7,0-11.5c1.5-0.5,1.7-0.3,1.7,1.1c0,3.7,0,7.3,0.1,11c0,0.5,0,1-0.1,1.5c-0.1,0.4-0.4,1.1-0.6,1.1
			c-0.5,0-1.3-0.2-1.6-0.6c-1.8-2.6-3.5-5.3-5.2-7.9c-0.8-1.1-1.6-2.2-2.7-3.1c0,3.8,0,7.7,0,11.6c-0.4,0-0.9,0-1.6,0.1
			c0-1.7,0-3.2,0-4.8c0-3,0-5.9,0.1-8.9c0-0.4,0.4-1.3,0.5-1.3c0.6,0.1,1.4,0.2,1.7,0.6c1.5,2,2.9,4.2,4.2,6.3
			c1.1,1.6,2,3.3,3.1,4.9C952.4,581.9,952.6,581.9,952.7,581.8z"/>
		<path d="M898.8,580.1c1.3-0.2,1.9-0.2,2.3,1c0.2,0.6,1,1.1,1.6,1.5c1.6,1,5,0.6,6-0.7c0.8-1.1,0.6-2-0.6-2.6
			c-1.3-0.7-2.6-1.3-4.2-1.3c-2.7,0-4.3-2.1-4.1-4.7c0.1-1.3,2.1-3.1,3.7-3.2c1.8-0.1,3.6-0.1,5.3,1c1,0.7,1.7,1.4,1.5,2.8
			c-1,0.6-1.4-0.2-2-0.8c-1.1-1.1-4.5-1.6-5.8-0.6c-0.5,0.4-1.3,1.4-1.2,1.7c0.5,0.8,1.3,1.6,2.1,1.9c1.5,0.6,3.2,0.6,4.7,1.2
			c1.3,0.5,2.3,1.4,2.5,3c0.2,1.5-0.3,2.7-1.4,3.7c-2.5,2.1-6.9,1.6-8.9-0.5C899.7,582.5,899.4,581.3,898.8,580.1z"/>
		<path d="M940.7,584.9c-1.3,0.4-2.1,0-2.5-1.3c-0.2-0.6-0.6-1.1-0.7-1.7c-0.3-1.6-1.3-1.8-2.7-1.9c-2.9-0.3-4.9,0.3-5.6,3.6
			c-0.1,0.7-0.6,1.6-1.7,1.5c-0.7,0-0.9-0.3-0.6-0.9c1.8-4.1,3.5-8.2,5.3-12.3c0-0.1,0.1-0.3,0.1-0.3c0.5-0.5,1-1.3,1.4-1.2
			c0.5,0,1.1,0.8,1.4,1.3c0.6,1.2,1.1,2.6,1.6,3.9c1.3,3,2.5,6,3.8,9.1C940.7,584.6,940.7,584.7,940.7,584.9z M936,578
			c-0.8-2-1.5-3.8-2.2-5.9c-0.8,2.1-1.5,3.9-2.3,5.9C932.9,578,934.3,578,936,578z"/>
		<path d="M925.9,580.1c-0.3,2.6-2.9,4.7-5.3,4.9c-2.8,0.2-5-0.7-6.4-3.2c-2.2-4.1-1.5-9.3,3.4-11.5c2.2-1,5.9,0.1,7.2,2.2
			c0.2,0.3,0.4,0.7,0.4,1c0,0.5-0.1,1-0.2,1.5c-0.4-0.2-0.8-0.5-1.2-0.7c-0.1-0.1-0.2-0.3-0.3-0.4c-2.1-2.7-6.1-2.7-7.9,0.3
			c-1.5,2.4-1.5,7.1,2.2,8.6c2.2,0.8,4.4,0.7,5.8-1.6C924.2,580.3,924.8,579.8,925.9,580.1z"/>
		<path class="st0" d="M936,578c-1.7,0-3,0-4.5,0c0.8-1.9,1.5-3.8,2.3-5.9C934.5,574.1,935.2,576,936,578z"/>
	</g>
</g>
</svg>
